<?xml version="1.0" encoding="UTF-8"?>
<svg id="buendia" xmlns="http://www.w3.org/2000/svg" xmlns:xlink="http://www.w3.org/1999/xlink" viewBox="0 0 1920 1080">
  <defs>
    <style>
      .cls-1 {
        letter-spacing: .03em;
      }

      .cls-2 {
        fill: #432c5f;
      }

      .cls-3 {
        letter-spacing: -.03em;
      }

      .cls-4, .cls-5 {
        fill: #fff;
      }

      .cls-5 {
        font-family: ACaslonPro-Regular, 'Adobe Caslon Pro';
        font-size: 36px;
      }

      .cls-6 {
        fill: none;
      }

      .cls-7 {
        fill: #110638;
      }

      .cls-8 {
        letter-spacing: -.09em;
      }

      .cls-9 {
        font-family: ACaslonPro-Semibold, 'Adobe Caslon Pro';
        font-size: 60px;
        font-weight: 600;
      }

      .cls-10 {
        letter-spacing: 0em;
      }

      .cls-11 {
        fill: #ffffda;
      }

      .cls-12 {
        letter-spacing: 0em;
      }

      .cls-13 {
        letter-spacing: -.02em;
      }

      .cls-14 {
        fill: #fefefe;
      }

      .cls-15 {
        letter-spacing: 0em;
      }

      .cls-16 {
        clip-path: url(#clippath);
      }

      .cls-17 {
        opacity: .08;
      }

      .cls-18 {
        font-family: AvenirLTStd-Book, 'Avenir LT Std';
        font-size: 48px;
      }
    </style>
    <clipPath id="clippath">
      <rect class="cls-6" width="1920" height="972.36"/>
    </clipPath>
  </defs>
  <rect class="cls-2" y="-1.64" width="1920" height="972.36"/>
  <path class="cls-11" d="M543.06,139.3h1377.43v940.7H543.06c-25.84,0-46.82-20.98-46.82-46.82V186.11c0-25.84,20.98-46.82,46.82-46.82Z"/>
  <text class="cls-9" transform="translate(593.94 288.42)"><tspan x="0" y="0">Buendía</tspan><tspan class="cls-3" x="205.8" y="0">:</tspan><tspan x="220.08" y="0"> </tspan><tspan class="cls-15" x="232.68" y="0">t</tspan><tspan x="252.83" y="0">i</tspan><tspan class="cls-12" x="269.09" y="0">p</tspan><tspan x="300.77" y="0">og</tspan><tspan class="cls-12" x="361.01" y="0">r</tspan><tspan x="382.79" y="0">afía con a</tspan><tspan class="cls-10" x="611.51" y="0">r</tspan><tspan x="632.39" y="0">oma a </tspan><tspan class="cls-12" x="790.3" y="0">t</tspan><tspan x="810.46" y="0">ie</tspan><tspan class="cls-12" x="852.76" y="0">rr</tspan><tspan x="896.32" y="0">a y </tspan><tspan class="cls-15" x="974.38" y="0">t</tspan><tspan x="994.54" y="0">inta</tspan></text>
  <text class="cls-18" transform="translate(603.04 402.31)"><tspan x="0" y="0">Con nomb</tspan><tspan class="cls-13" x="227.66" y="0">r</tspan><tspan x="242.73" y="0">e de novela y carácter mestizo, </tspan><tspan x="0" y="57.6">Buendía no es solo una tipografía: es una </tspan><tspan x="0" y="115.2">declaración de principios. Diseñada por César </tspan><tspan x="0" y="172.8">Puertas como parte de su exploración sob</tspan><tspan class="cls-13" x="903.15" y="172.8">r</tspan><tspan x="918.23" y="172.8">e la </tspan><tspan x="0" y="230.4">identidad gráfica colombiana, esta fuente serif </tspan><tspan x="0" y="288">nace del cruce ent</tspan><tspan class="cls-13" x="393.88" y="288">r</tspan><tspan x="408.96" y="288">e lo clásico y lo popula</tspan><tspan class="cls-8" x="898.84" y="288">r</tspan><tspan x="910.36" y="288">, ent</tspan><tspan class="cls-13" x="1006.36" y="288">r</tspan><tspan x="1021.43" y="288">e </tspan><tspan x="0" y="345.6">la elegancia editorial y la calidez de lo cotidiano.</tspan></text>
  <rect class="cls-2" x="613.26" y="852.15" width="357.11" height="61.96" rx="30.98" ry="30.98"/>
  <text class="cls-5" transform="translate(702.42 894.26)"><tspan class="cls-1" x="0" y="0">O</tspan><tspan x="30.46" y="0">btener fuente</tspan></text>
  <g>
    <path class="cls-11" d="M662.77,875.74l-.21.03c-1.48-1.57-3.02-3.08-4.61-4.53-2.93-2.29-6.34,1.32-4.27,4.19,1.48,1.62,3,3.19,4.57,4.71l.03.18c-4.53,1.96-9.87-.37-11.48-5.02l-.48-2.05c.03-.52-.04-1.09,0-1.61.44-5.22,5.65-8.75,10.68-7.51,5.01,1.23,7.81,6.84,5.78,11.6Z"/>
    <path class="cls-7" d="M662.77,875.74s.1.2.16.16c.54-1.83,2.62-2.7,4.33-1.93.55-2.55,3.79-3.35,5.5-1.37.78-2.07,3.18-2.87,5.01-1.56,4.49,5.22,12.29,8.93,8.77,17.11-1.28,2.98-6.14,8.05-9.17,9.22-6.4,2.47-16.75-1.43-16.22-9.32.09-1.36.67-2.65.87-3.99-1.2-1.3-2.51-2.5-3.76-3.75-1.41-1.42-3.39-3.17-4.62-4.66-2.12-2.58.43-6.22,3.49-5.1,1.35.49,4.3,4.01,5.62,5.18Z"/>
    <path class="cls-14" d="M655.6,872.15c.5-.1,1.09-.02,1.47.34l9.39,9.4c.84.68,1.89-.26,1.25-1.17s-2.04-1.86-2.77-2.77c-1.23-1.51.25-3.16,1.88-2.28l4.11,4.08c.82.57,1.86-.33,1.13-1.29-.72-.94-2.45-2.1-2.97-3.05-.81-1.49.89-2.92,2.32-1.76,1.3,1.05,2.56,2.9,3.85,3.86.8.59,1.66-.04,1.37-.97-.12-.39-1.58-1.53-1.92-2.01-1-1.4.44-3.01,1.94-2.18,2.26,2.41,5,4.65,7.17,7.12,4.7,5.36-.16,10.93-4.29,14.58-3.87,3.42-10.25,2.97-14.09-.28-2.59-2.19-3.2-5.1-1.89-8.23l3.11,3.07c.74.42,1.52-.32,1.2-1.12l-12.94-12.99c-.66-.73-.25-2.16.7-2.35Z"/>
  </g>
  <g class="cls-16">
    <g class="cls-17">
      <path class="cls-4" d="M52.73-128.99H8.42c-1.05-2.11-1.58-4.75-1.58-6.33,0-13.71,24.79-18.46,74.9-18.46h69.1c81.76,0,122.38,24.26,122.38,75.96,0,42.73-39.04,72.27-89.15,77.01,62.77,0,104.44,33.23,104.44,75.96,0,61.72-54.86,92.84-139.79,92.84H5.25c-1.58-1.58-2.11-4.22-2.11-5.8,0-11.08,16.35-16.88,49.58-18.46V-128.99ZM147.68-9.25c36.92,0,70.16-20.57,70.16-65.94,0-34.81-25.32-53.8-73.32-53.8h-37.45V-9.25h40.62ZM149.79,143.2c49.58,0,83.34-22.68,83.34-67.52,0-38.51-31.12-62.77-83.87-62.77h-42.2v130.29h42.73Z"/>
      <path class="cls-4" d="M356.56-35.62c-5.27-.53-10.02-.53-14.77-.53-8.97,0-16.88,1.05-23.74,2.11-1.06-2.11-1.58-4.22-1.58-7.38,0-12.66,21.63-21.1,60.66-21.1,22.68,0,27.43,10.02,27.43,23.21V91.5c0,33.23,14.24,56.44,47.47,56.44s63.3-32.18,63.3-73.32V-35.62c-5.27-.53-10.02-.53-14.77-.53-8.97,0-16.88,1.05-23.74,2.11-1.06-2.11-1.58-4.22-1.58-7.38,0-12.66,21.63-21.1,60.66-21.1,22.68,0,27.43,10.02,27.43,23.21v167.74c0,13.71,6.33,23.21,18.99,23.21,11.61,0,20.57-7.91,26.38-23.21,6.33,0,8.97,6.86,8.97,10.02,0,15.3-18.46,37.45-51.17,37.45s-47.47-20.57-47.47-48.53c0-2.11,0-4.75.53-7.91-13.71,32.18-42.73,56.44-83.87,56.44-55.39,0-79.12-32.18-79.12-82.29V-35.62Z"/>
      <path class="cls-4" d="M689.41,48.78c0,60.66,23.74,101.28,74.9,101.28,32.71,0,54.33-17.41,64.35-40.09,7.91,0,12.66,4.22,12.66,12.13,0,18.99-32.18,53.8-88.62,53.8-77.01,0-113.94-54.33-113.94-120.27,0-70.16,42.73-126.07,114.47-126.07,58.55,0,95.48,24.79,95.48,97.06,0,3.17,0,8.97-.53,12.66h-158.78v9.5ZM795.96,17.65c.53-3.69.53-6.86.53-10.55,0-30.07-13.19-56.97-44.84-56.97s-53.8,21.63-60.13,67.52h104.44Z"/>
      <path class="cls-4" d="M930.46-35.09c-6.86-.53-13.71-1.05-20.04-1.05-8.97,0-16.88,1.05-23.74,2.11-1.05-2.11-1.58-4.22-1.58-7.38,0-12.66,21.63-21.1,60.66-21.1,22.68,0,27.43,10.02,27.43,23.21V-11.88c13.71-33.23,44.84-58.55,85.98-58.55,56.44,0,83.87,28.49,83.87,87.56v129.76h42.73c1.05,1.58,1.58,3.69,1.58,5.27,0,11.61-22.15,15.83-66.99,15.83h-64.88c-1.05-1.58-1.58-3.69-1.58-5.28,0-8.97,13.71-13.71,41.14-15.3V21.88c0-47.47-16.88-64.88-50.64-64.88s-65.94,32.18-65.94,73.32v116.58h41.15c1.05,1.58,1.58,3.69,1.58,5.27,0,11.61-22.15,15.83-66.99,15.83h-64.88c-1.05-1.58-1.58-3.69-1.58-5.28,0-8.97,13.71-13.71,42.73-15.3V-35.09Z"/>
      <path class="cls-4" d="M1396.24,123.68c-15.3,32.71-45.89,52.22-80.71,52.22-72.27,0-99.17-51.69-99.17-117.1,0-75.96,46.95-129.24,109.72-129.24,29.54,0,52.22,10.55,65.94,30.07v-118.16c-7.91-.53-15.3-1.05-22.15-1.05-10.02,0-18.46.53-26.38,2.11-1.05-2.11-1.58-4.75-1.58-7.91,0-13.19,24.27-22.15,67.52-22.15,25.32,0,30.59,10.55,30.59,24.26V126.32c0,15.3,6.33,25.32,19.52,25.32,10.55,0,20.57-7.91,25.85-23.21,6.33,0,8.97,6.86,8.97,10.02,0,15.3-18.46,37.45-51.17,37.45s-46.95-20.04-46.95-48v-4.22ZM1392.02,16.6c0-41.14-30.59-62.77-58.55-62.77-44.31,0-65.41,36.4-65.41,103.39,0,48.53,13.71,91.26,61.72,91.26,31.12,0,62.24-26.38,62.24-71.21V16.6Z"/>
      <path class="cls-4" d="M1551.84-35.62c-5.28-.53-10.02-.53-14.77-.53-8.97,0-16.88,1.05-23.74,2.11-1.06-2.11-1.58-4.22-1.58-7.38,0-12.66,21.63-21.1,60.66-21.1,22.68,0,27.43,10.02,27.43,23.21v186.21h41.67c1.05,1.58,1.58,3.69,1.58,5.27,0,11.61-22.15,15.83-66.99,15.83h-64.88c-1.05-1.58-1.58-3.69-1.58-5.28,0-8.97,13.71-13.71,42.2-15.3V-35.62ZM1548.15-142.18c0-17.93,13.19-29.54,28.48-29.54,16.35,0,27.43,12.13,27.43,29.54,0,14.77-12.13,27.43-29.01,27.43s-26.9-12.66-26.9-27.43Z"/>
      <path class="cls-4" d="M1815.05,6.05c0-25.85-5.8-55.92-43.25-55.92-26.9,0-43.78,16.35-43.78,45.37,0,9.5,1.06,17.93,5.8,28.48-4.75,2.11-8.44,3.17-14.77,3.17-18.46,0-34.82-12.66-34.82-36.4,0-34.29,32.71-61.19,91.79-61.19,62.24,0,86.51,33.23,86.51,81.76v114.99c0,17.41,7.38,25.32,17.93,25.32,12.66,0,21.63-7.91,27.43-23.21,6.33,0,8.97,6.86,8.97,10.02,0,15.3-18.46,37.45-51.17,37.45-25.32,0-43.78-14.24-46.95-42.73-13.71,28.48-44.84,42.73-74.9,42.73-37.45,0-68.05-19.52-68.05-56.97s35.34-64.88,100.22-64.88c12.13,0,24.79,1.06,39.03,3.17V6.05ZM1815.05,76.21c-10.02-1.06-19.52-2.11-28.48-2.11-37.45,0-62.25,12.13-62.25,40.62,0,22.68,16.88,35.87,36.92,35.87,28.49,0,53.8-19.52,53.8-55.92v-18.46Z"/>
      <path class="cls-4" d="M52.73,199.01H8.42c-1.05-2.11-1.58-4.75-1.58-6.33,0-13.71,24.79-18.46,74.9-18.46h69.1c81.76,0,122.38,24.26,122.38,75.96,0,42.73-39.04,72.27-89.15,77.01,62.77,0,104.44,33.23,104.44,75.96,0,61.72-54.86,92.84-139.79,92.84H5.25c-1.58-1.58-2.11-4.22-2.11-5.8,0-11.08,16.35-16.88,49.58-18.46V199.01ZM147.68,318.75c36.92,0,70.16-20.57,70.16-65.94,0-34.81-25.32-53.8-73.32-53.8h-37.45v119.74h40.62ZM149.79,471.2c49.58,0,83.34-22.68,83.34-67.52,0-38.51-31.12-62.77-83.87-62.77h-42.2v130.29h42.73Z"/>
      <path class="cls-4" d="M356.56,292.38c-5.27-.53-10.02-.53-14.77-.53-8.97,0-16.88,1.05-23.74,2.11-1.06-2.11-1.58-4.22-1.58-7.38,0-12.66,21.63-21.1,60.66-21.1,22.68,0,27.43,10.02,27.43,23.21v130.82c0,33.23,14.24,56.44,47.47,56.44s63.3-32.18,63.3-73.32v-110.25c-5.27-.53-10.02-.53-14.77-.53-8.97,0-16.88,1.05-23.74,2.11-1.06-2.11-1.58-4.22-1.58-7.38,0-12.66,21.63-21.1,60.66-21.1,22.68,0,27.43,10.02,27.43,23.21v167.74c0,13.71,6.33,23.21,18.99,23.21,11.61,0,20.57-7.91,26.38-23.21,6.33,0,8.97,6.86,8.97,10.02,0,15.3-18.46,37.45-51.17,37.45s-47.47-20.57-47.47-48.53c0-2.11,0-4.75.53-7.91-13.71,32.18-42.73,56.44-83.87,56.44-55.39,0-79.12-32.18-79.12-82.29v-129.24Z"/>
      <path class="cls-4" d="M689.41,376.78c0,60.66,23.74,101.28,74.9,101.28,32.71,0,54.33-17.41,64.35-40.09,7.91,0,12.66,4.22,12.66,12.13,0,18.99-32.18,53.8-88.62,53.8-77.01,0-113.94-54.33-113.94-120.27,0-70.16,42.73-126.07,114.47-126.07,58.55,0,95.48,24.79,95.48,97.06,0,3.17,0,8.97-.53,12.66h-158.78v9.5ZM795.96,345.65c.53-3.69.53-6.86.53-10.55,0-30.07-13.19-56.97-44.84-56.97s-53.8,21.63-60.13,67.52h104.44Z"/>
      <path class="cls-4" d="M930.46,292.91c-6.86-.53-13.71-1.05-20.04-1.05-8.97,0-16.88,1.05-23.74,2.11-1.05-2.11-1.58-4.22-1.58-7.38,0-12.66,21.63-21.1,60.66-21.1,22.68,0,27.43,10.02,27.43,23.21v27.43c13.71-33.23,44.84-58.55,85.98-58.55,56.44,0,83.87,28.49,83.87,87.56v129.76h42.73c1.05,1.58,1.58,3.69,1.58,5.27,0,11.61-22.15,15.83-66.99,15.83h-64.88c-1.05-1.58-1.58-3.69-1.58-5.28,0-8.97,13.71-13.71,41.14-15.3v-125.54c0-47.47-16.88-64.88-50.64-64.88s-65.94,32.18-65.94,73.32v116.58h41.15c1.05,1.58,1.58,3.69,1.58,5.27,0,11.61-22.15,15.83-66.99,15.83h-64.88c-1.05-1.58-1.58-3.69-1.58-5.28,0-8.97,13.71-13.71,42.73-15.3v-182.51Z"/>
      <path class="cls-4" d="M1396.24,451.68c-15.3,32.71-45.89,52.22-80.71,52.22-72.27,0-99.17-51.69-99.17-117.1,0-75.96,46.95-129.24,109.72-129.24,29.54,0,52.22,10.55,65.94,30.07v-118.16c-7.91-.53-15.3-1.05-22.15-1.05-10.02,0-18.46.53-26.38,2.11-1.05-2.11-1.58-4.75-1.58-7.91,0-13.19,24.27-22.15,67.52-22.15,25.32,0,30.59,10.55,30.59,24.26v289.6c0,15.3,6.33,25.32,19.52,25.32,10.55,0,20.57-7.91,25.85-23.21,6.33,0,8.97,6.86,8.97,10.02,0,15.3-18.46,37.45-51.17,37.45s-46.95-20.04-46.95-48v-4.22ZM1392.02,344.6c0-41.14-30.59-62.77-58.55-62.77-44.31,0-65.41,36.4-65.41,103.39,0,48.53,13.71,91.26,61.72,91.26,31.12,0,62.24-26.38,62.24-71.21v-60.66Z"/>
      <path class="cls-4" d="M1551.84,292.38c-5.28-.53-10.02-.53-14.77-.53-8.97,0-16.88,1.05-23.74,2.11-1.06-2.11-1.58-4.22-1.58-7.38,0-12.66,21.63-21.1,60.66-21.1,22.68,0,27.43,10.02,27.43,23.21v186.21h41.67c1.05,1.58,1.58,3.69,1.58,5.27,0,11.61-22.15,15.83-66.99,15.83h-64.88c-1.05-1.58-1.58-3.69-1.58-5.28,0-8.97,13.71-13.71,42.2-15.3v-183.04ZM1548.15,185.82c0-17.93,13.19-29.54,28.48-29.54,16.35,0,27.43,12.13,27.43,29.54,0,14.77-12.13,27.43-29.01,27.43s-26.9-12.66-26.9-27.43Z"/>
      <path class="cls-4" d="M1815.05,334.05c0-25.85-5.8-55.92-43.25-55.92-26.9,0-43.78,16.35-43.78,45.37,0,9.5,1.06,17.93,5.8,28.48-4.75,2.11-8.44,3.17-14.77,3.17-18.46,0-34.82-12.66-34.82-36.4,0-34.29,32.71-61.19,91.79-61.19,62.24,0,86.51,33.23,86.51,81.76v114.99c0,17.41,7.38,25.32,17.93,25.32,12.66,0,21.63-7.91,27.43-23.21,6.33,0,8.97,6.86,8.97,10.02,0,15.3-18.46,37.45-51.17,37.45-25.32,0-43.78-14.24-46.95-42.73-13.71,28.48-44.84,42.73-74.9,42.73-37.45,0-68.05-19.52-68.05-56.97s35.34-64.88,100.22-64.88c12.13,0,24.79,1.06,39.03,3.17v-51.17ZM1815.05,404.21c-10.02-1.06-19.52-2.11-28.48-2.11-37.45,0-62.25,12.13-62.25,40.62,0,22.68,16.88,35.87,36.92,35.87,28.49,0,53.8-19.52,53.8-55.92v-18.46Z"/>
      <path class="cls-4" d="M52.73,527.01H8.42c-1.05-2.11-1.58-4.75-1.58-6.33,0-13.71,24.79-18.46,74.9-18.46h69.1c81.76,0,122.38,24.26,122.38,75.96,0,42.73-39.04,72.27-89.15,77.01,62.77,0,104.44,33.23,104.44,75.96,0,61.72-54.86,92.84-139.79,92.84H5.25c-1.58-1.58-2.11-4.22-2.11-5.8,0-11.08,16.35-16.88,49.58-18.46v-272.72ZM147.68,646.75c36.92,0,70.16-20.57,70.16-65.94,0-34.81-25.32-53.8-73.32-53.8h-37.45v119.74h40.62ZM149.79,799.2c49.58,0,83.34-22.68,83.34-67.52,0-38.51-31.12-62.77-83.87-62.77h-42.2v130.29h42.73Z"/>
      <path class="cls-4" d="M356.56,620.38c-5.27-.53-10.02-.53-14.77-.53-8.97,0-16.88,1.05-23.74,2.11-1.06-2.11-1.58-4.22-1.58-7.38,0-12.66,21.63-21.1,60.66-21.1,22.68,0,27.43,10.02,27.43,23.21v130.82c0,33.23,14.24,56.44,47.47,56.44s63.3-32.18,63.3-73.32v-110.25c-5.27-.53-10.02-.53-14.77-.53-8.97,0-16.88,1.05-23.74,2.11-1.06-2.11-1.58-4.22-1.58-7.38,0-12.66,21.63-21.1,60.66-21.1,22.68,0,27.43,10.02,27.43,23.21v167.74c0,13.71,6.33,23.21,18.99,23.21,11.61,0,20.57-7.91,26.38-23.21,6.33,0,8.97,6.86,8.97,10.02,0,15.3-18.46,37.45-51.17,37.45s-47.47-20.57-47.47-48.53c0-2.11,0-4.75.53-7.91-13.71,32.18-42.73,56.44-83.87,56.44-55.39,0-79.12-32.18-79.12-82.29v-129.24Z"/>
      <path class="cls-4" d="M689.41,704.78c0,60.66,23.74,101.28,74.9,101.28,32.71,0,54.33-17.41,64.35-40.09,7.91,0,12.66,4.22,12.66,12.13,0,18.99-32.18,53.8-88.62,53.8-77.01,0-113.94-54.33-113.94-120.27,0-70.16,42.73-126.07,114.47-126.07,58.55,0,95.48,24.79,95.48,97.06,0,3.17,0,8.97-.53,12.66h-158.78v9.5ZM795.96,673.65c.53-3.69.53-6.86.53-10.55,0-30.07-13.19-56.97-44.84-56.97s-53.8,21.63-60.13,67.52h104.44Z"/>
      <path class="cls-4" d="M930.46,620.91c-6.86-.53-13.71-1.05-20.04-1.05-8.97,0-16.88,1.05-23.74,2.11-1.05-2.11-1.58-4.22-1.58-7.38,0-12.66,21.63-21.1,60.66-21.1,22.68,0,27.43,10.02,27.43,23.21v27.43c13.71-33.23,44.84-58.55,85.98-58.55,56.44,0,83.87,28.49,83.87,87.56v129.76h42.73c1.05,1.58,1.58,3.69,1.58,5.27,0,11.61-22.15,15.83-66.99,15.83h-64.88c-1.05-1.58-1.58-3.69-1.58-5.28,0-8.97,13.71-13.71,41.14-15.3v-125.54c0-47.47-16.88-64.88-50.64-64.88s-65.94,32.18-65.94,73.32v116.58h41.15c1.05,1.58,1.58,3.69,1.58,5.27,0,11.61-22.15,15.83-66.99,15.83h-64.88c-1.05-1.58-1.58-3.69-1.58-5.28,0-8.97,13.71-13.71,42.73-15.3v-182.51Z"/>
      <path class="cls-4" d="M1396.24,779.68c-15.3,32.71-45.89,52.22-80.71,52.22-72.27,0-99.17-51.69-99.17-117.1,0-75.96,46.95-129.24,109.72-129.24,29.54,0,52.22,10.55,65.94,30.07v-118.16c-7.91-.53-15.3-1.05-22.15-1.05-10.02,0-18.46.53-26.38,2.11-1.05-2.11-1.58-4.75-1.58-7.91,0-13.19,24.27-22.15,67.52-22.15,25.32,0,30.59,10.55,30.59,24.26v289.6c0,15.3,6.33,25.32,19.52,25.32,10.55,0,20.57-7.91,25.85-23.21,6.33,0,8.97,6.86,8.97,10.02,0,15.3-18.46,37.45-51.17,37.45s-46.95-20.04-46.95-48v-4.22ZM1392.02,672.6c0-41.14-30.59-62.77-58.55-62.77-44.31,0-65.41,36.4-65.41,103.39,0,48.53,13.71,91.26,61.72,91.26,31.12,0,62.24-26.38,62.24-71.21v-60.66Z"/>
      <path class="cls-4" d="M1551.84,620.38c-5.28-.53-10.02-.53-14.77-.53-8.97,0-16.88,1.05-23.74,2.11-1.06-2.11-1.58-4.22-1.58-7.38,0-12.66,21.63-21.1,60.66-21.1,22.68,0,27.43,10.02,27.43,23.21v186.21h41.67c1.05,1.58,1.58,3.69,1.58,5.27,0,11.61-22.15,15.83-66.99,15.83h-64.88c-1.05-1.58-1.58-3.69-1.58-5.28,0-8.97,13.71-13.71,42.2-15.3v-183.04ZM1548.15,513.82c0-17.93,13.19-29.54,28.48-29.54,16.35,0,27.43,12.13,27.43,29.54,0,14.77-12.13,27.43-29.01,27.43s-26.9-12.66-26.9-27.43Z"/>
      <path class="cls-4" d="M1815.05,662.05c0-25.85-5.8-55.92-43.25-55.92-26.9,0-43.78,16.35-43.78,45.37,0,9.5,1.06,17.93,5.8,28.48-4.75,2.11-8.44,3.17-14.77,3.17-18.46,0-34.82-12.66-34.82-36.4,0-34.29,32.71-61.19,91.79-61.19,62.24,0,86.51,33.23,86.51,81.76v114.99c0,17.41,7.38,25.32,17.93,25.32,12.66,0,21.63-7.91,27.43-23.21,6.33,0,8.97,6.86,8.97,10.02,0,15.3-18.46,37.45-51.17,37.45-25.32,0-43.78-14.24-46.95-42.73-13.71,28.48-44.84,42.73-74.9,42.73-37.45,0-68.05-19.52-68.05-56.97s35.34-64.88,100.22-64.88c12.13,0,24.79,1.06,39.03,3.17v-51.17ZM1815.05,732.21c-10.02-1.06-19.52-2.11-28.48-2.11-37.45,0-62.25,12.13-62.25,40.62,0,22.68,16.88,35.87,36.92,35.87,28.49,0,53.8-19.52,53.8-55.92v-18.46Z"/>
      <path class="cls-4" d="M52.73,855.01H8.42c-1.05-2.11-1.58-4.75-1.58-6.33,0-13.71,24.79-18.46,74.9-18.46h69.1c81.76,0,122.38,24.26,122.38,75.96,0,42.73-39.04,72.27-89.15,77.01,62.77,0,104.44,33.23,104.44,75.96,0,61.72-54.86,92.84-139.79,92.84H5.25c-1.58-1.58-2.11-4.22-2.11-5.8,0-11.08,16.35-16.88,49.58-18.46v-272.72ZM147.68,974.75c36.92,0,70.16-20.57,70.16-65.94,0-34.81-25.32-53.8-73.32-53.8h-37.45v119.74h40.62ZM149.79,1127.2c49.58,0,83.34-22.68,83.34-67.52,0-38.51-31.12-62.77-83.87-62.77h-42.2v130.29h42.73Z"/>
      <path class="cls-4" d="M356.56,948.38c-5.27-.53-10.02-.53-14.77-.53-8.97,0-16.88,1.05-23.74,2.11-1.06-2.11-1.58-4.22-1.58-7.38,0-12.66,21.63-21.1,60.66-21.1,22.68,0,27.43,10.02,27.43,23.21v130.82c0,33.23,14.24,56.44,47.47,56.44s63.3-32.18,63.3-73.32v-110.25c-5.27-.53-10.02-.53-14.77-.53-8.97,0-16.88,1.05-23.74,2.11-1.06-2.11-1.58-4.22-1.58-7.38,0-12.66,21.63-21.1,60.66-21.1,22.68,0,27.43,10.02,27.43,23.21v167.74c0,13.71,6.33,23.21,18.99,23.21,11.61,0,20.57-7.91,26.38-23.21,6.33,0,8.97,6.86,8.97,10.02,0,15.3-18.46,37.45-51.17,37.45s-47.47-20.57-47.47-48.53c0-2.11,0-4.75.53-7.91-13.71,32.18-42.73,56.44-83.87,56.44-55.39,0-79.12-32.18-79.12-82.29v-129.24Z"/>
      <path class="cls-4" d="M689.41,1032.78c0,60.66,23.74,101.28,74.9,101.28,32.71,0,54.33-17.41,64.35-40.09,7.91,0,12.66,4.22,12.66,12.13,0,18.99-32.18,53.8-88.62,53.8-77.01,0-113.94-54.33-113.94-120.27,0-70.16,42.73-126.07,114.47-126.07,58.55,0,95.48,24.79,95.48,97.06,0,3.17,0,8.97-.53,12.66h-158.78v9.5ZM795.96,1001.65c.53-3.69.53-6.86.53-10.55,0-30.07-13.19-56.97-44.84-56.97s-53.8,21.63-60.13,67.52h104.44Z"/>
      <path class="cls-4" d="M930.46,948.91c-6.86-.53-13.71-1.05-20.04-1.05-8.97,0-16.88,1.05-23.74,2.11-1.05-2.11-1.58-4.22-1.58-7.38,0-12.66,21.63-21.1,60.66-21.1,22.68,0,27.43,10.02,27.43,23.21v27.43c13.71-33.23,44.84-58.55,85.98-58.55,56.44,0,83.87,28.49,83.87,87.56v129.76h42.73c1.05,1.58,1.58,3.69,1.58,5.27,0,11.61-22.15,15.83-66.99,15.83h-64.88c-1.05-1.58-1.58-3.69-1.58-5.28,0-8.97,13.71-13.71,41.14-15.3v-125.54c0-47.47-16.88-64.88-50.64-64.88s-65.94,32.18-65.94,73.32v116.58h41.15c1.05,1.58,1.58,3.69,1.58,5.27,0,11.61-22.15,15.83-66.99,15.83h-64.88c-1.05-1.58-1.58-3.69-1.58-5.28,0-8.97,13.71-13.71,42.73-15.3v-182.51Z"/>
      <path class="cls-4" d="M1396.24,1107.68c-15.3,32.71-45.89,52.22-80.71,52.22-72.27,0-99.17-51.69-99.17-117.1,0-75.96,46.95-129.24,109.72-129.24,29.54,0,52.22,10.55,65.94,30.07v-118.16c-7.91-.53-15.3-1.05-22.15-1.05-10.02,0-18.46.53-26.38,2.11-1.05-2.11-1.58-4.75-1.58-7.91,0-13.19,24.27-22.15,67.52-22.15,25.32,0,30.59,10.55,30.59,24.26v289.6c0,15.3,6.33,25.32,19.52,25.32,10.55,0,20.57-7.91,25.85-23.21,6.33,0,8.97,6.86,8.97,10.02,0,15.3-18.46,37.45-51.17,37.45s-46.95-20.04-46.95-48v-4.22ZM1392.02,1000.6c0-41.14-30.59-62.77-58.55-62.77-44.31,0-65.41,36.4-65.41,103.39,0,48.53,13.71,91.26,61.72,91.26,31.12,0,62.24-26.38,62.24-71.21v-60.66Z"/>
      <path class="cls-4" d="M1551.84,948.38c-5.28-.53-10.02-.53-14.77-.53-8.97,0-16.88,1.05-23.74,2.11-1.06-2.11-1.58-4.22-1.58-7.38,0-12.66,21.63-21.1,60.66-21.1,22.68,0,27.43,10.02,27.43,23.21v186.21h41.67c1.05,1.58,1.58,3.69,1.58,5.27,0,11.61-22.15,15.83-66.99,15.83h-64.88c-1.05-1.58-1.58-3.69-1.58-5.28,0-8.97,13.71-13.71,42.2-15.3v-183.04ZM1548.15,841.82c0-17.93,13.19-29.54,28.48-29.54,16.35,0,27.43,12.13,27.43,29.54,0,14.77-12.13,27.43-29.01,27.43s-26.9-12.66-26.9-27.43Z"/>
      <path class="cls-4" d="M1815.05,990.05c0-25.85-5.8-55.92-43.25-55.92-26.9,0-43.78,16.35-43.78,45.37,0,9.5,1.06,17.93,5.8,28.48-4.75,2.11-8.44,3.17-14.77,3.17-18.46,0-34.82-12.66-34.82-36.4,0-34.29,32.71-61.19,91.79-61.19,62.24,0,86.51,33.23,86.51,81.76v114.99c0,17.41,7.38,25.32,17.93,25.32,12.66,0,21.63-7.91,27.43-23.21,6.33,0,8.97,6.86,8.97,10.02,0,15.3-18.46,37.45-51.17,37.45-25.32,0-43.78-14.24-46.95-42.73-13.71,28.48-44.84,42.73-74.9,42.73-37.45,0-68.05-19.52-68.05-56.97s35.34-64.88,100.22-64.88c12.13,0,24.79,1.06,39.03,3.17v-51.17ZM1815.05,1060.21c-10.02-1.06-19.52-2.11-28.48-2.11-37.45,0-62.25,12.13-62.25,40.62,0,22.68,16.88,35.87,36.92,35.87,28.49,0,53.8-19.52,53.8-55.92v-18.46Z"/>
    </g>
  </g>
</svg>