<?xml version="1.0" encoding="UTF-8"?>
<svg xmlns="http://www.w3.org/2000/svg" viewBox="0 0 1920 1080">
  <defs>
    <style>
      .cls-1 {
        fill: #ed430d;
      }

      .cls-2 {
        font-family: ACaslonPro-Semibold, 'Adobe Caslon Pro';
        font-size: 72px;
        font-weight: 600;
      }

      .cls-2, .cls-3 {
        fill: #fff;
      }

      .cls-3 {
        font-family: ACaslonPro-Regular, 'Adobe Caslon Pro';
        font-size: 48px;
      }

      .cls-4 {
        letter-spacing: -.02em;
      }

      .cls-5 {
        letter-spacing: -.05em;
      }

      .cls-6 {
        letter-spacing: 0em;
      }

      .cls-7 {
        letter-spacing: 0em;
      }

      .cls-8 {
        letter-spacing: -.08em;
      }

      .cls-9 {
        letter-spacing: 0em;
      }

      .cls-10 {
        letter-spacing: 0em;
      }

      .cls-11 {
        letter-spacing: -.02em;
      }

      .cls-12 {
        letter-spacing: -.03em;
      }

      .cls-13 {
        letter-spacing: 0em;
      }

      .cls-14 {
        letter-spacing: -.07em;
      }

      .cls-15 {
        letter-spacing: -.02em;
      }

      .cls-16 {
        letter-spacing: -.04em;
      }
    </style>
  </defs>
  <g id="Capa_3" data-name="Capa 3">
    <rect class="cls-1" width="1920" height="1080"/>
  </g>
  <g id="bajo_portada_a" data-name="bajo portada a">
    <text class="cls-2" transform="translate(1308.13 404)"><tspan x="0" y="0">OB</tspan><tspan class="cls-12" x="110.01" y="0">L</tspan><tspan class="cls-10" x="156.09" y="0">I</tspan><tspan x="184.39" y="0">C</tspan><tspan class="cls-16" x="238.39" y="0">U</tspan><tspan x="288.79" y="0">A</tspan></text>
    <text class="cls-2" transform="translate(1308.13 827.67)"><tspan class="cls-11" x="0" y="0">B</tspan><tspan class="cls-5" x="47.38" y="0">A</tspan><tspan x="97.56" y="0">G</tspan><tspan class="cls-8" x="157.68" y="0">A</tspan><tspan class="cls-9" x="205.13" y="0">T</tspan><tspan class="cls-15" x="257.83" y="0">E</tspan><tspan class="cls-13" x="306.14" y="0">L</tspan><tspan class="cls-6" x="353.66" y="0">A</tspan></text>
    <text class="cls-2" transform="translate(211.98 397.32)"><tspan x="0" y="0">BU</tspan><tspan class="cls-15" x="102.46" y="0">E</tspan><tspan x="150.77" y="0">NDIA</tspan></text>
    <text class="cls-2" transform="translate(211.98 822.74)"><tspan x="0" y="0">BU</tspan><tspan class="cls-14" x="102.46" y="0">F</tspan><tspan x="142.92" y="0">A</tspan><tspan class="cls-12" x="196.49" y="0">L</tspan><tspan class="cls-10" x="242.57" y="0">I</tspan><tspan x="270.86" y="0">NO</tspan></text>
    <text class="cls-2" transform="translate(765.4 404)"><tspan x="0" y="0">U</tspan><tspan class="cls-13" x="53.64" y="0">R</tspan><tspan class="cls-4" x="104.4" y="0">B</tspan><tspan x="151.78" y="0">A</tspan><tspan class="cls-11" x="205.34" y="0">N</tspan><tspan x="262.08" y="0">A</tspan></text>
    <text class="cls-2" transform="translate(765.41 828.86)"><tspan class="cls-12" x="0" y="0">L</tspan><tspan x="46.08" y="0">EG</tspan><tspan class="cls-9" x="155.59" y="0">IT</tspan><tspan class="cls-7" x="236.95" y="0">IMA</tspan></text>
    <text class="cls-3" transform="translate(211.98 451.12)"><tspan x="0" y="0">6 fuentes</tspan></text>
    <text class="cls-3" transform="translate(765.41 451.84)"><tspan x="0" y="0">10 fuentes</tspan></text>
    <text class="cls-3" transform="translate(1308.13 452.56)"><tspan x="0" y="0">4 fuentes</tspan></text>
    <text class="cls-3" transform="translate(1308.13 880.34)"><tspan x="0" y="0">14 fuentes</tspan></text>
    <text class="cls-3" transform="translate(211.98 880.91)"><tspan x="0" y="0">9 fuentes</tspan></text>
    <text class="cls-3" transform="translate(765.41 884.17)"><tspan x="0" y="0">2 fuentes</tspan></text>
  </g>
</svg>